<svg width="1024" height="1024" viewBox="0 0 1024 1024" fill="none" xmlns="http://www.w3.org/2000/svg">
  <defs>
    <linearGradient id="bg" x1="140" y1="120" x2="880" y2="904" gradientUnits="userSpaceOnUse">
      <stop stop-color="#D8E4FF"/>
      <stop offset="1" stop-color="#B5CAF8"/>
    </linearGradient>
    <linearGradient id="panel" x1="212" y1="180" x2="812" y2="836" gradientUnits="userSpaceOnUse">
      <stop stop-color="#EDF4FF"/>
      <stop offset="1" stop-color="#C7D8FB"/>
    </linearGradient>
    <linearGradient id="paper" x1="0" y1="0" x2="0" y2="1">
      <stop stop-color="#FBFDFF"/>
      <stop offset="1" stop-color="#E8F0FF"/>
    </linearGradient>
    <linearGradient id="badgeBg" x1="318" y1="536" x2="672" y2="696" gradientUnits="userSpaceOnUse">
      <stop stop-color="#F7FBFF"/>
      <stop offset="1" stop-color="#D8E6FF"/>
    </linearGradient>
    <linearGradient id="displayBg" x1="472" y1="566" x2="576" y2="630" gradientUnits="userSpaceOnUse">
      <stop stop-color="#F8FCFF"/>
      <stop offset="1" stop-color="#E5EEFF"/>
    </linearGradient>
    <linearGradient id="gameBg" x1="368" y1="560" x2="444" y2="636" gradientUnits="userSpaceOnUse">
      <stop stop-color="#A8EBFF"/>
      <stop offset="1" stop-color="#59BDF6"/>
    </linearGradient>
    <linearGradient id="buttonBlue" x1="602" y1="556" x2="646" y2="600" gradientUnits="userSpaceOnUse">
      <stop stop-color="#87BDFF"/>
      <stop offset="1" stop-color="#4275F0"/>
    </linearGradient>
    <linearGradient id="buttonCyan" x1="636" y1="592" x2="682" y2="638" gradientUnits="userSpaceOnUse">
      <stop stop-color="#A2E6FF"/>
      <stop offset="1" stop-color="#64B4FF"/>
    </linearGradient>
    <filter id="outerShadow" x="108" y="88" width="808" height="848" filterUnits="userSpaceOnUse" color-interpolation-filters="sRGB">
      <feDropShadow dx="0" dy="30" stdDeviation="32" flood-color="#233872" flood-opacity="0.22"/>
    </filter>
    <filter id="innerShadow" x="224" y="200" width="576" height="560" filterUnits="userSpaceOnUse" color-interpolation-filters="sRGB">
      <feDropShadow dx="0" dy="18" stdDeviation="18" flood-color="#10204B" flood-opacity="0.12"/>
    </filter>
    <filter id="techGlow" x="292" y="516" width="440" height="158" filterUnits="userSpaceOnUse" color-interpolation-filters="sRGB">
      <feDropShadow dx="0" dy="10" stdDeviation="12" flood-color="#6FA9FF" flood-opacity="0.16"/>
    </filter>
  </defs>

  <g filter="url(#outerShadow)">
    <rect x="140" y="120" width="744" height="784" rx="176" fill="url(#bg)"/>
    <rect x="172" y="152" width="680" height="720" rx="156" fill="url(#panel)"/>
  </g>

  <g filter="url(#innerShadow)">
    <rect x="286" y="216" width="452" height="540" rx="120" fill="#1F2F66"/>
  </g>

  <rect x="390" y="252" width="244" height="360" rx="52" fill="url(#paper)"/>
  <rect x="434" y="328" width="156" height="26" rx="13" fill="#BDD0F0" fill-opacity="0.72"/>
  <rect x="434" y="384" width="112" height="26" rx="13" fill="#BDD0F0" fill-opacity="0.72"/>
  <rect x="434" y="440" width="140" height="26" rx="13" fill="#BDD0F0" fill-opacity="0.72"/>

  <g filter="url(#techGlow)">
    <rect x="314" y="526" width="396" height="136" rx="68" fill="url(#badgeBg)" stroke="#8FAEFF" stroke-width="8"/>
    <rect x="330" y="542" width="364" height="12" rx="6" fill="#FFFFFF" fill-opacity="0.18"/>

    <circle cx="406" cy="594" r="38" fill="url(#gameBg)"/>
    <path d="M398 568H414V586H432V602H414V620H398V602H380V586H398V568Z" fill="#213C7B"/>
    <circle cx="406" cy="594" r="5.5" fill="#DFF8FF"/>

    <rect x="466" y="559" width="116" height="70" rx="35" fill="url(#displayBg)" stroke="#8CAEFF" stroke-width="6"/>
    <text x="489" y="604" fill="#22407E" font-size="32" font-family="SF Pro Display, PingFang SC, Microsoft YaHei, sans-serif" font-weight="700">A</text>
    <text x="540" y="602" fill="#22407E" font-size="30" font-family="SF Pro Display, PingFang SC, Microsoft YaHei, sans-serif" font-weight="700">文</text>
    <path d="M507 581H539" stroke="#5C8FFF" stroke-width="6" stroke-linecap="round"/>
    <path d="M529 572L539 581L529 590" stroke="#5C8FFF" stroke-width="6" stroke-linecap="round" stroke-linejoin="round"/>
    <path d="M539 607H507" stroke="#5C8FFF" stroke-width="6" stroke-linecap="round"/>
    <path d="M517 598L507 607L517 616" stroke="#5C8FFF" stroke-width="6" stroke-linecap="round" stroke-linejoin="round"/>

    <circle cx="626" cy="568" r="14" fill="url(#buttonBlue)" stroke="#25438D" stroke-width="5"/>
    <circle cx="606" cy="590" r="14" fill="url(#buttonCyan)" stroke="#25438D" stroke-width="5"/>
    <circle cx="646" cy="590" r="14" fill="url(#buttonBlue)" stroke="#25438D" stroke-width="5"/>
    <circle cx="626" cy="612" r="14" fill="url(#buttonCyan)" stroke="#25438D" stroke-width="5"/>
    <text x="621.2" y="573.1" fill="#F8FBFF" font-size="11" font-family="SF Pro Display, PingFang SC, Microsoft YaHei, sans-serif" font-weight="700">Y</text>
    <text x="601.8" y="595.1" fill="#F8FBFF" font-size="11" font-family="SF Pro Display, PingFang SC, Microsoft YaHei, sans-serif" font-weight="700">X</text>
    <text x="641.8" y="595.1" fill="#F8FBFF" font-size="11" font-family="SF Pro Display, PingFang SC, Microsoft YaHei, sans-serif" font-weight="700">B</text>
    <text x="621.3" y="617.1" fill="#F8FBFF" font-size="11" font-family="SF Pro Display, PingFang SC, Microsoft YaHei, sans-serif" font-weight="700">A</text>
  </g>

  <g opacity="0.74">
    <rect x="451" y="716" width="122" height="30" rx="15" fill="#1D2F63" fill-opacity="0.28" stroke="#6A95FF" stroke-opacity="0.12" stroke-width="2"/>
    <rect x="462" y="724" width="21" height="14" rx="7" fill="#27478B" fill-opacity="0.42" stroke="#88B8FF" stroke-opacity="0.18" stroke-width="1.2"/>
    <path d="M467.4 728.8H473.2" stroke="#E6F5FF" stroke-opacity="0.54" stroke-width="1.5" stroke-linecap="round"/>
    <path d="M471.1 726.9L473.2 728.8L471.1 730.7" stroke="#E6F5FF" stroke-opacity="0.54" stroke-width="1.5" stroke-linecap="round" stroke-linejoin="round"/>
    <path d="M476.8 733.2H471" stroke="#E6F5FF" stroke-opacity="0.54" stroke-width="1.5" stroke-linecap="round"/>
    <path d="M473.1 731.3L471 733.2L473.1 735.1" stroke="#E6F5FF" stroke-opacity="0.54" stroke-width="1.5" stroke-linecap="round" stroke-linejoin="round"/>
    <text x="524.5" y="736" fill="#E1EEFF" fill-opacity="0.52" font-size="19" font-family="SF Pro Display, PingFang SC, Microsoft YaHei, sans-serif" font-weight="600" letter-spacing="-0.35" text-anchor="middle">Lingo</text>
  </g>
</svg>
