<?xml version="1.0" encoding="UTF-8"?>
<svg width="1024" height="1024" viewBox="0 0 1024 1024" fill="none" xmlns="http://www.w3.org/2000/svg">
  <defs>
  <linearGradient id="appBubble" x1="164" y1="130" x2="850" y2="852" gradientUnits="userSpaceOnUse">
    <stop offset="0" stop-color="#7EEBFF" />
    <stop offset="0.46" stop-color="#23B5FF" />
    <stop offset="1" stop-color="#0B70DF" />
  </linearGradient>
  <linearGradient id="appPad" x1="248" y1="300" x2="740" y2="602" gradientUnits="userSpaceOnUse">
    <stop offset="0" stop-color="#F8FDFF" />
    <stop offset="0.55" stop-color="#CFF3FF" />
    <stop offset="1" stop-color="#72D4FF" />
  </linearGradient>
  <linearGradient id="appAccent" x1="330" y1="348" x2="682" y2="536" gradientUnits="userSpaceOnUse">
    <stop offset="0" stop-color="#008DFF" />
    <stop offset="1" stop-color="#075ED7" />
  </linearGradient></defs>

  <g>
    <path d="M130 150h708a130 130 0 0 1 130 130v494a130 130 0 0 1-130 130H496L236 980l92-196A130 130 0 0 1 130 654V280a130 130 0 0 1 130-130Z" fill="url(#appBubble)" stroke="#006EDB" stroke-width="30" stroke-linejoin="round" />
    <path d="M176 292a92 92 0 0 1 92-92h488" fill="none" stroke="#BDF7FF" stroke-width="10" stroke-linecap="round" opacity="0.72" />
    <path d="M248 438c18-82 74-116 144-92 22 8 34-22 66-22h108c32 0 44 30 66 22 70-24 126 10 144 92 18 80 4 180-44 230-42 44-108 10-136-44H428c-28 54-94 88-136 44-48-50-62-150-44-230Z" fill="url(#appPad)" stroke="#0866D7" stroke-width="18" stroke-linejoin="round" />
    <rect x="324" y="444" width="48" height="144" rx="16" fill="url(#appAccent)" />
    <rect x="276" y="492" width="144" height="48" rx="16" fill="url(#appAccent)" />
    <rect x="442" y="430" width="146" height="56" rx="28" fill="#DFF8FF" />
    <rect x="470" y="455" width="90" height="10" rx="5" fill="#0870DD" />
    <circle cx="644" cy="440" r="34" fill="#008DFF" />
    <circle cx="704" cy="500" r="34" fill="#36C5FF" />
    <circle cx="644" cy="560" r="34" fill="#0870DD" />
  </g>
</svg>
