<svg width="1024" height="1024" viewBox="0 0 1024 1024" fill="none" xmlns="http://www.w3.org/2000/svg">
  <defs>
    <linearGradient id="bg" x1="512" y1="56" x2="512" y2="968" gradientUnits="userSpaceOnUse">
      <stop stop-color="#242630" />
      <stop offset="1" stop-color="#0A0A11" />
    </linearGradient>
    <radialGradient id="redGlow" cx="0" cy="0" r="1" gradientUnits="userSpaceOnUse" gradientTransform="translate(500 410) rotate(90) scale(420 420)">
      <stop stop-color="#B72D25" stop-opacity="0.55" />
      <stop offset="1" stop-color="#B72D25" stop-opacity="0" />
    </radialGradient>
    <linearGradient id="emblem" x1="512" y1="214" x2="512" y2="650" gradientUnits="userSpaceOnUse">
      <stop stop-color="#AE312A" />
      <stop offset="1" stop-color="#591310" />
    </linearGradient>
    <filter id="shadow" x="24" y="24" width="976" height="976" filterUnits="userSpaceOnUse" color-interpolation-filters="sRGB">
      <feFlood flood-opacity="0" result="BackgroundImageFix" />
      <feColorMatrix in="SourceAlpha" type="matrix" values="0 0 0 0 0 0 0 0 0 0 0 0 0 0 0 0 0 0 127 0" result="hardAlpha" />
      <feOffset dy="12" />
      <feGaussianBlur stdDeviation="16" />
      <feComposite in2="hardAlpha" operator="out" />
      <feColorMatrix type="matrix" values="0 0 0 0 0.03 0 0 0 0 0.03 0 0 0 0 0.06 0 0 0 0.35 0" />
      <feBlend mode="normal" in2="BackgroundImageFix" result="effect1_dropShadow_1_1" />
      <feBlend mode="normal" in="SourceGraphic" in2="effect1_dropShadow_1_1" result="shape" />
    </filter>
  </defs>

  <g filter="url(#shadow)">
    <rect x="56" y="56" width="912" height="912" rx="178" fill="url(#bg)" />
    <rect x="56" y="56" width="912" height="912" rx="178" fill="url(#redGlow)" />
    <rect x="60" y="60" width="904" height="904" rx="174" stroke="#D1735F" stroke-width="7" />
    <rect x="72" y="72" width="880" height="880" rx="164" stroke="#777687" stroke-opacity="0.6" stroke-width="3" />

    <rect x="284" y="204" width="456" height="456" rx="48" fill="#0B0C12" fill-opacity="0.82" />
    <rect x="300" y="220" width="424" height="424" rx="40" fill="url(#emblem)" stroke="#F48A75" stroke-width="8" />
    <path d="M366 314L454 272L672 536L584 578L366 314Z" fill="#2C0F18" fill-opacity="0.72" />
    <path d="M410 538L488 496L638 392L560 434L410 538Z" fill="#32111A" fill-opacity="0.68" />
    <rect x="550" y="278" width="84" height="84" rx="10" fill="#34121C" fill-opacity="0.78" />
    <rect x="404" y="502" width="84" height="84" rx="10" fill="#34121C" fill-opacity="0.78" />

    <circle cx="710" cy="760" r="138" fill="#0E1D41" stroke="#DCA37B" stroke-width="8" />
    <circle cx="710" cy="760" r="122" stroke="#6378A2" stroke-opacity="0.65" stroke-width="3" />
    <rect x="624" y="728" width="144" height="76" rx="24" fill="#152B56" stroke="#E8BF8E" stroke-width="5" />
    <path d="M728 804H748L734 824L728 804Z" fill="#152B56" stroke="#E8BF8E" stroke-width="2" />
    <path d="M644 758H722V740L758 770L722 800V782H644V758Z" fill="#F2CD8D" />
    <path d="M772 722H694V704L658 734L694 764V746H772V722Z" fill="#D8855F" />

    <rect x="170" y="796" width="288" height="98" rx="26" fill="#0B1A34" fill-opacity="0.72" stroke="#917768" stroke-opacity="0.7" stroke-width="2" />
    <text x="314" y="864" text-anchor="middle" font-family="Arial, Helvetica, sans-serif" font-size="66" font-weight="700" fill="#F2E1BF" stroke="#7A5142" stroke-width="5" paint-order="stroke">
      AutoGG
    </text>
  </g>
</svg>
