<svg width="1024" height="1024" viewBox="0 0 1024 1024" fill="none" xmlns="http://www.w3.org/2000/svg">
  <defs>
    <linearGradient id="tile" x1="208" y1="176" x2="824" y2="848" gradientUnits="userSpaceOnUse">
      <stop stop-color="#3A4A66"/>
      <stop offset="1" stop-color="#202B3E"/>
    </linearGradient>
    <linearGradient id="tileStroke" x1="208" y1="176" x2="824" y2="848" gradientUnits="userSpaceOnUse">
      <stop stop-color="#BFCFE8" stop-opacity="0.7"/>
      <stop offset="1" stop-color="#9FB0CE" stop-opacity="0.35"/>
    </linearGradient>
    <linearGradient id="bubbleA" x1="296" y1="348" x2="628" y2="660" gradientUnits="userSpaceOnUse">
      <stop stop-color="#F7FBFF"/>
      <stop offset="1" stop-color="#E2ECFA"/>
    </linearGradient>
    <linearGradient id="bubbleB" x1="414" y1="310" x2="746" y2="626" gradientUnits="userSpaceOnUse">
      <stop stop-color="#D9E8FD"/>
      <stop offset="1" stop-color="#BCD3F7"/>
    </linearGradient>
    <filter id="shadow" x="136" y="132" width="752" height="772" filterUnits="userSpaceOnUse" color-interpolation-filters="sRGB">
      <feFlood flood-opacity="0" result="BackgroundImageFix"/>
      <feColorMatrix in="SourceAlpha" type="matrix" values="0 0 0 0 0 0 0 0 0 0 0 0 0 0 0 0 0 0 127 0" result="hardAlpha"/>
      <feOffset dy="14"/>
      <feGaussianBlur stdDeviation="20"/>
      <feComposite in2="hardAlpha" operator="out"/>
      <feColorMatrix type="matrix" values="0 0 0 0 0.09 0 0 0 0 0.13 0 0 0 0 0.22 0 0 0 0.34 0"/>
      <feBlend mode="normal" in2="BackgroundImageFix" result="effect1_dropShadow_1_1"/>
      <feBlend mode="normal" in="SourceGraphic" in2="effect1_dropShadow_1_1" result="shape"/>
    </filter>
  </defs>

  <g filter="url(#shadow)">
    <rect x="208" y="176" width="608" height="608" rx="166" fill="url(#tile)"/>
    <rect x="209" y="177" width="606" height="606" rx="165" stroke="url(#tileStroke)" stroke-width="2"/>

    <path d="M314 374C314 334.235 346.235 302 386 302H530C569.765 302 602 334.235 602 374V498C602 537.765 569.765 570 530 570H430L372 624V570H386C346.235 570 314 537.765 314 498V374Z" fill="url(#bubbleA)"/>
    <path d="M422 352C422 316.654 450.654 288 486 288H630C665.346 288 694 316.654 694 352V472C694 507.346 665.346 536 630 536H566L512 584V536H486C450.654 536 422 507.346 422 472V352Z" fill="url(#bubbleB)"/>

    <path d="M470 458C470 442.536 482.536 430 498 430H535V404L588 448L535 492V466H498C482.536 466 470 453.464 470 438V458Z" fill="#2D62D9"/>
    <path d="M536 500C536 515.464 523.464 528 508 528H471V554L418 510L471 466V492H508C523.464 492 536 504.536 536 520V500Z" fill="#8AA8E8"/>

    <circle cx="384" cy="436" r="10" fill="#6F88B5"/>
    <circle cx="420" cy="436" r="10" fill="#6F88B5"/>
    <circle cx="456" cy="436" r="10" fill="#6F88B5"/>
  </g>
</svg>
