<svg width="1024" height="1024" viewBox="0 0 1024 1024" fill="none" xmlns="http://www.w3.org/2000/svg">
  <defs>
    <linearGradient id="tile" x1="186" y1="150" x2="838" y2="874" gradientUnits="userSpaceOnUse">
      <stop stop-color="#262A34"/>
      <stop offset="1" stop-color="#12151C"/>
    </linearGradient>
    <linearGradient id="tileStroke" x1="186" y1="150" x2="838" y2="874" gradientUnits="userSpaceOnUse">
      <stop stop-color="#6D7484" stop-opacity="0.58"/>
      <stop offset="1" stop-color="#3B4250" stop-opacity="0.48"/>
    </linearGradient>
    <linearGradient id="diamond" x1="512" y1="302" x2="512" y2="736" gradientUnits="userSpaceOnUse">
      <stop stop-color="#D64343"/>
      <stop offset="1" stop-color="#8F1D22"/>
    </linearGradient>
    <linearGradient id="accent" x1="392" y1="512" x2="632" y2="512" gradientUnits="userSpaceOnUse">
      <stop stop-color="#E6E9F0"/>
      <stop offset="1" stop-color="#B8BFCD"/>
    </linearGradient>
    <filter id="shadow" x="126" y="120" width="772" height="796" filterUnits="userSpaceOnUse" color-interpolation-filters="sRGB">
      <feFlood flood-opacity="0" result="BackgroundImageFix"/>
      <feColorMatrix in="SourceAlpha" type="matrix" values="0 0 0 0 0 0 0 0 0 0 0 0 0 0 0 0 0 0 127 0" result="hardAlpha"/>
      <feOffset dy="16"/>
      <feGaussianBlur stdDeviation="24"/>
      <feComposite in2="hardAlpha" operator="out"/>
      <feColorMatrix type="matrix" values="0 0 0 0 0.04 0 0 0 0 0.05 0 0 0 0 0.08 0 0 0 0.52 0"/>
      <feBlend mode="normal" in2="BackgroundImageFix" result="effect1_dropShadow_1_1"/>
      <feBlend mode="normal" in="SourceGraphic" in2="effect1_dropShadow_1_1" result="shape"/>
    </filter>
  </defs>

  <g filter="url(#shadow)">
    <rect x="186" y="150" width="652" height="652" rx="178" fill="url(#tile)"/>
    <rect x="186.75" y="150.75" width="650.5" height="650.5" rx="177.25" stroke="url(#tileStroke)" stroke-width="1.5"/>

    <path d="M512 302L690 480L512 736L334 480L512 302Z" fill="url(#diamond)"/>
    <path d="M512 334L660 484L512 698L364 484L512 334Z" fill="#C73038" fill-opacity="0.22"/>
    <path d="M420 470L564 614L620 558L476 414L420 470Z" fill="#14181F" fill-opacity="0.9"/>

    <path d="M358 512L412 474V498H470V526H412V550L358 512Z" fill="url(#accent)"/>
    <path d="M666 512L612 550V526H554V498H612V474L666 512Z" fill="url(#accent)"/>

    <rect x="326" y="684" width="372" height="10" rx="5" fill="#8A90A1" fill-opacity="0.42"/>
  </g>
</svg>
