<svg width="1024" height="1024" viewBox="0 0 1024 1024" fill="none" xmlns="http://www.w3.org/2000/svg">
  <defs>
    <linearGradient id="bg" x1="160" y1="120" x2="864" y2="904" gradientUnits="userSpaceOnUse">
      <stop stop-color="#1A2F55"/>
      <stop offset="1" stop-color="#0E172A"/>
    </linearGradient>
    <linearGradient id="card" x1="300" y1="210" x2="640" y2="780" gradientUnits="userSpaceOnUse">
      <stop stop-color="#EDF4FF"/>
      <stop offset="1" stop-color="#D3E3FF"/>
    </linearGradient>
    <linearGradient id="chat" x1="560" y1="480" x2="824" y2="770" gradientUnits="userSpaceOnUse">
      <stop stop-color="#6C8BFF"/>
      <stop offset="1" stop-color="#4869E8"/>
    </linearGradient>
    <linearGradient id="gold" x1="512" y1="180" x2="512" y2="860" gradientUnits="userSpaceOnUse">
      <stop stop-color="#F7E3A2"/>
      <stop offset="1" stop-color="#D5A95B"/>
    </linearGradient>
    <filter id="shadow" x="80" y="80" width="864" height="864" filterUnits="userSpaceOnUse" color-interpolation-filters="sRGB">
      <feFlood flood-opacity="0" result="BackgroundImageFix"/>
      <feColorMatrix in="SourceAlpha" type="matrix" values="0 0 0 0 0 0 0 0 0 0 0 0 0 0 0 0 0 0 127 0" result="hardAlpha"/>
      <feOffset dy="12"/>
      <feGaussianBlur stdDeviation="12"/>
      <feComposite in2="hardAlpha" operator="out"/>
      <feColorMatrix type="matrix" values="0 0 0 0 0.01 0 0 0 0 0.04 0 0 0 0 0.12 0 0 0 0.35 0"/>
      <feBlend mode="normal" in2="BackgroundImageFix" result="effect1_dropShadow_1_1"/>
      <feBlend mode="normal" in="SourceGraphic" in2="effect1_dropShadow_1_1" result="shape"/>
    </filter>
  </defs>

  <g filter="url(#shadow)">
    <rect x="96" y="96" width="832" height="832" rx="188" fill="url(#bg)"/>
    <rect x="96" y="96" width="832" height="832" rx="188" stroke="#5B78B4" stroke-width="6"/>

    <rect x="246" y="188" width="400" height="618" rx="76" fill="url(#card)"/>
    <rect x="246" y="188" width="400" height="618" rx="76" stroke="#98B2E5" stroke-width="8"/>

    <rect x="336" y="146" width="220" height="86" rx="36" fill="#EFF5FF" stroke="#98B2E5" stroke-width="8"/>

    <rect x="312" y="310" width="268" height="26" rx="13" fill="#B9CDF5"/>
    <rect x="312" y="372" width="240" height="26" rx="13" fill="#B9CDF5"/>
    <rect x="312" y="434" width="198" height="26" rx="13" fill="#B9CDF5"/>

    <path d="M518 514C451.726 514 398 567.726 398 634C398 700.274 451.726 754 518 754H700C766.274 754 820 700.274 820 634C820 567.726 766.274 514 700 514H518Z" fill="url(#chat)"/>
    <path d="M552 754L520 814L608 768L552 754Z" fill="url(#chat)"/>

    <path d="M528 631C528 598 555 571 588 571C621 571 648 598 648 631C648 664 621 691 588 691C555 691 528 664 528 631Z" fill="none" stroke="url(#gold)" stroke-width="20" stroke-linecap="round"/>
    <path d="M634 631C634 598 661 571 694 571C727 571 754 598 754 631C754 664 727 691 694 691C661 691 634 664 634 631Z" fill="none" stroke="url(#gold)" stroke-width="20" stroke-linecap="round"/>
  </g>
</svg>
